<svg id="Layer_1" data-name="Layer 1" xmlns="http://www.w3.org/2000/svg" viewBox="0 0 32 32"><title>GroupIconSettings_large_a872b5274fa8445c8f8b5f70cd2d6ef6</title><path d="M30.05,19.78L28,18.19a11.68,11.68,0,0,0,0-4.38l2.07-1.6a0.94,0.94,0,0,0,.34-1.28L27.58,6.06a0.94,0.94,0,0,0-1.28-.34l-2.42,1A12.16,12.16,0,0,0,20.1,4.53l-0.35-2.6A0.94,0.94,0,0,0,18.81,1H13.19a0.94,0.94,0,0,0-.94.94L11.9,4.53A12.16,12.16,0,0,0,8.11,6.72l-2.42-1a0.94,0.94,0,0,0-1.28.34L1.6,10.94a0.94,0.94,0,0,0,.34,1.28L4,13.81a11.68,11.68,0,0,0,0,4.38l-2.07,1.6a0.94,0.94,0,0,0-.34,1.28l2.81,4.87a0.94,0.94,0,0,0,1.28.34l2.42-1a12.16,12.16,0,0,0,3.79,2.18l0.35,2.6a0.94,0.94,0,0,0,.94.94h5.62a0.94,0.94,0,0,0,.94-0.94l0.35-2.6a12.16,12.16,0,0,0,3.79-2.18l2.42,1a0.94,0.94,0,0,0,1.28-.34l2.81-4.87A0.94,0.94,0,0,0,30.05,19.78ZM16,21a5,5,0,1,1,5-5A5,5,0,0,1,16,21Z" fill="#fff"/><path d="M31,20l-2.21-1.7a12.46,12.46,0,0,0,0-4.67L31,12a1,1,0,0,0,.37-1.37l-3-5.2A1,1,0,0,0,27,5L24.41,6.1a13,13,0,0,0-4-2.33L20,1a1,1,0,0,0-1-1H13a1,1,0,0,0-1,1L11.63,3.77a13,13,0,0,0-4,2.33L5,5a1,1,0,0,0-1.37.37l-3,5.2A1,1,0,0,0,1,12l2.21,1.7a12.46,12.46,0,0,0,0,4.67L1,20A1,1,0,0,0,.64,21.4l3,5.2A1,1,0,0,0,5,27L7.59,25.9a13,13,0,0,0,4,2.33L12,31a1,1,0,0,0,1,1h6a1,1,0,0,0,1-1l0.37-2.77a13,13,0,0,0,4-2.33L27,27a1,1,0,0,0,1.37-.37l3-5.2A1,1,0,0,0,31,20Zm-3.92,4.8-1.89-.78a2,2,0,0,0-2.06.33,10.94,10.94,0,0,1-3.42,2A2,2,0,0,0,18.39,28l-0.27,2H13.88l-0.27-2a2,2,0,0,0-1.31-1.62,10.94,10.94,0,0,1-3.42-2,2,2,0,0,0-2.06-.33l-1.89.78L2.82,21.17l1.62-1.25A2,2,0,0,0,5.19,18a10.46,10.46,0,0,1,0-4,2,2,0,0,0-.75-1.94L2.82,10.83,4.93,7.17,6.83,7.95a2,2,0,0,0,2.06-.33,10.94,10.94,0,0,1,3.42-2A2,2,0,0,0,13.61,4l0.27-2h4.23l0.27,2A2,2,0,0,0,19.7,5.65a10.94,10.94,0,0,1,3.42,2,2,2,0,0,0,2.06.33l1.89-.78,2.12,3.66-1.62,1.25A2,2,0,0,0,26.81,14a10.46,10.46,0,0,1,0,4,2,2,0,0,0,.75,1.94l1.62,1.25Z" fill="#6fa6d4"/><path d="M16,10a6,6,0,1,0,6,6A6,6,0,0,0,16,10Zm0,10a4,4,0,1,1,4-4A4,4,0,0,1,16,20Z" fill="#6fa6d4"/></svg>