<svg id="Layer_1" data-name="Layer 1" xmlns="http://www.w3.org/2000/svg" viewBox="0 0 32 32"><title>SendByTask_32</title><rect x="5" y="2" width="22" height="27" fill="#fff"/><path d="M28,1H26V3a2,2,0,0,1-4,0V1H10V3A2,2,0,0,1,6,3V1H4A1,1,0,0,0,3,2V30a1,1,0,0,0,1,1H28a1,1,0,0,0,1-1V2A1,1,0,0,0,28,1ZM27,29H5V7H27V29Z" fill="#9da2a5"/><rect x="23" width="2" height="4" rx="1" ry="1" fill="#9da2a5"/><rect x="7" width="2" height="4" rx="1" ry="1" fill="#9da2a5"/><path d="M14.59,24a1.25,1.25,0,0,1-.79-0.28L9.26,20a1.25,1.25,0,1,1,1.59-1.93L14.39,21,21,12.49a1.25,1.25,0,1,1,2,1.53l-7.35,9.5a1.25,1.25,0,0,1-.85.48H14.59Z" fill="#d65633"/></svg>